<svg width="21" height="19" viewBox="0 0 21 19" fill="none" xmlns="http://www.w3.org/2000/svg">
<path opacity="0.5" d="M19.0166 2.02913L19.0184 2.03091C20.9929 4.05604 20.9954 7.38888 19.0166 9.43859L10.4812 18.2801L1.97084 9.46452C1.97026 9.46391 1.96968 9.46329 1.9691 9.46268C1.02953 8.46821 0.5 7.14887 0.5 5.74496C0.5 4.33577 1.01158 3.0191 1.96728 2.02913L1.96728 2.02913L1.969 2.02734C3.91416 -0.00773775 7.10031 -0.0104953 9.06954 2.04956L9.07125 2.05133L10.1215 3.13927L10.4849 3.51568L10.8445 3.13562L11.893 2.02731C13.8614 -0.00970954 17.049 -0.00910265 19.0166 2.02913ZM12.1792 2.35591L10.4794 4.1167L8.7833 2.37812C8.783 2.3778 8.78269 2.37748 8.78239 2.37717C7.87421 1.43692 6.69468 0.959831 5.50855 0.959831C4.32305 0.959831 3.14415 1.43641 2.23617 2.37566C1.34831 3.27179 0.871778 4.46459 0.871778 5.74496C0.871778 7.01255 1.37604 8.19868 2.22907 9.10685L2.22904 9.10688L2.23379 9.1118L10.1215 17.2824L10.4817 17.6555L10.8414 17.2819L18.7266 9.09179C19.6143 8.19569 20.0907 7.003 20.0907 5.72276C20.0907 4.43598 19.5885 3.24713 18.7299 2.35712C16.9453 0.484886 13.9816 0.488849 12.1792 2.35591Z" fill="black" stroke="black"/>
</svg>
